<svg width="16" height="15" viewBox="0 0 16 15" fill="none" xmlns="http://www.w3.org/2000/svg">
<path d="M0.101562 0.578125H2.85156C3.9401 0.578125 4.75781 0.807292 5.30469 1.26562C5.85156 1.71875 6.125 2.41406 6.125 3.35156C6.125 3.82031 6.0625 4.23438 5.9375 4.59375C5.81771 4.95312 5.63802 5.2474 5.39844 5.47656C5.16406 5.70573 4.8776 5.86198 4.53906 5.94531V6.01562C4.95573 6.11979 5.29688 6.28906 5.5625 6.52344C5.82812 6.75781 6.02344 7.05729 6.14844 7.42188C6.27865 7.78125 6.34375 8.21094 6.34375 8.71094C6.34375 9.3776 6.22135 9.95833 5.97656 10.4531C5.73177 10.9427 5.375 11.3229 4.90625 11.5938C4.4375 11.8646 3.8724 12 3.21094 12H0.101562V0.578125ZM1.82031 5.35156H2.84375C3.375 5.35156 3.76562 5.20052 4.01562 4.89844C4.26562 4.59635 4.39062 4.14844 4.39062 3.55469C4.39062 3.04948 4.26042 2.66406 4 2.39844C3.73958 2.13281 3.34635 2 2.82031 2H1.82031V5.35156ZM1.82031 6.75V10.5312H3.05469C3.5599 10.5312 3.9401 10.3724 4.19531 10.0547C4.45573 9.73177 4.58594 9.24479 4.58594 8.59375C4.58594 8.1875 4.52083 7.84896 4.39062 7.57812C4.26042 7.30729 4.07292 7.10156 3.82812 6.96094C3.58333 6.82031 3.28646 6.75 2.9375 6.75H1.82031Z" fill="#010C80"/>
<path d="M15.3672 6.27344C15.3672 7.22135 15.2865 8.05729 15.125 8.78125C14.9688 9.50521 14.7344 10.1146 14.4219 10.6094C14.1146 11.099 13.737 11.4714 13.2891 11.7266L15.0781 14.7188H13.0938L11.6953 12.1328C11.6641 12.1328 11.6224 12.1354 11.5703 12.1406C11.5234 12.1458 11.4792 12.1484 11.4375 12.1484C10.7865 12.1484 10.2266 11.9974 9.75781 11.6953C9.29427 11.3932 8.91406 10.974 8.61719 10.4375C8.32031 9.90104 8.10156 9.27604 7.96094 8.5625C7.82031 7.84896 7.75 7.08073 7.75 6.25781C7.75 4.96615 7.89323 3.88802 8.17969 3.02344C8.46615 2.15365 8.89323 1.5 9.46094 1.0625C10.0286 0.625 10.7318 0.40625 11.5703 0.40625C12.3932 0.40625 13.0859 0.625 13.6484 1.0625C14.2109 1.5 14.638 2.15365 14.9297 3.02344C15.2214 3.89323 15.3672 4.97656 15.3672 6.27344ZM9.53125 6.27344C9.53125 7.22656 9.60677 8.02604 9.75781 8.67188C9.91406 9.31771 10.1432 9.80469 10.4453 10.1328C10.7474 10.4609 11.1198 10.625 11.5625 10.625C12.0104 10.625 12.3828 10.4661 12.6797 10.1484C12.9766 9.82552 13.2005 9.34375 13.3516 8.70312C13.5026 8.05729 13.5781 7.2474 13.5781 6.27344C13.5781 4.8151 13.4089 3.72656 13.0703 3.00781C12.737 2.28385 12.237 1.92188 11.5703 1.92188C11.1172 1.92188 10.7396 2.08594 10.4375 2.41406C10.1354 2.74219 9.90885 3.22917 9.75781 3.875C9.60677 4.52083 9.53125 5.32031 9.53125 6.27344Z" fill="#0080FF"/>
</svg>
