<svg width="100" height="100" viewBox="0 0 100 100" fill="none" xmlns="http://www.w3.org/2000/svg">
<circle cx="50" cy="50" r="50" fill="#EEF5EF"/>
<path d="M71.5582 64.5337L58.0001 45.8906V27.75H61.7501V24H39.2501V27.75H43.0001V45.8906L29.4419 64.5337C28.6241 65.6577 28.1332 66.986 28.0235 68.3717C27.9138 69.7574 28.1896 71.1464 28.8204 72.385C29.4511 73.6236 30.4123 74.6636 31.5975 75.3899C32.7827 76.1161 34.1457 76.5004 35.5357 76.5H65.4626C66.8526 76.5004 68.2156 76.1161 69.4007 75.3899C70.5859 74.6636 71.5471 73.6236 72.1779 72.385C72.8086 71.1464 73.0844 69.7574 72.9747 68.3717C72.865 66.986 72.3741 65.6577 71.5563 64.5337H71.5582ZM46.7501 47.1094V27.75H54.2501V47.1094L59.2619 54H41.7382L46.7501 47.1094ZM65.4644 72.75H35.5376C34.8397 72.7492 34.1555 72.5557 33.5607 72.1907C32.9659 71.8257 32.4835 71.3034 32.1667 70.6815C31.85 70.0597 31.7112 69.3624 31.7657 68.6666C31.8202 67.9709 32.0659 67.3037 32.4757 66.7388L39.0119 57.75H61.9882L68.5263 66.7388C68.9361 67.3037 69.1818 67.9709 69.2363 68.6666C69.2908 69.3624 69.152 70.0597 68.8353 70.6815C68.5185 71.3034 68.0361 71.8257 67.4413 72.1907C66.8464 72.5557 66.1623 72.7492 65.4644 72.75Z" fill="#8EB390"/>
</svg>
