<svg width="100" height="100" viewBox="0 0 100 100" fill="none" xmlns="http://www.w3.org/2000/svg">
<circle cx="50" cy="50" r="50" fill="#FFF7EB"/>
<path d="M74.875 62.6878C74.875 63.717 74.3063 64.6107 73.4396 65.0712L52.0438 77.0962C51.6104 77.4212 51.0688 77.5837 50.5 77.5837C49.9313 77.5837 49.3896 77.4212 48.9563 77.0962L27.5604 65.0712C27.1262 64.843 26.7629 64.5002 26.5098 64.08C26.2567 63.6598 26.1236 63.1783 26.125 62.6878V38.3128C26.125 37.2837 26.6938 36.3899 27.5604 35.9295L48.9563 23.9045C49.3896 23.5795 49.9313 23.417 50.5 23.417C51.0688 23.417 51.6104 23.5795 52.0438 23.9045L73.4396 35.9295C74.3063 36.3899 74.875 37.2837 74.875 38.3128V62.6878ZM50.5 29.2399L34.3583 38.3128L50.5 47.3857L66.6417 38.3128L50.5 29.2399ZM31.5417 61.0899L47.7917 70.2441V52.0712L31.5417 42.9441V61.0899ZM69.4583 61.0899V42.9441L53.2083 52.0712V70.2441L69.4583 61.0899Z" fill="#FDB954"/>
</svg>
