<svg width="108" height="18" viewBox="0 0 108 18" fill="none" xmlns="http://www.w3.org/2000/svg">
<g clip-path="url(#clip0_2311_3417)">
<g clip-path="url(#clip1_2311_3417)">
<g clip-path="url(#clip2_2311_3417)">
<path d="M70.5625 3.51521C70.5625 2.91947 70.2998 2.43652 69.9758 2.43652C69.6518 2.43652 69.3891 2.91947 69.3891 3.51521V14.4864C69.3891 15.0821 69.6518 15.5651 69.9758 15.5651C70.2998 15.5651 70.5625 15.0821 70.5625 14.4864V3.51521Z" fill="#010C80"/>
<g clip-path="url(#clip3_2311_3417)">
<g clip-path="url(#clip4_2311_3417)">
<g clip-path="url(#clip5_2311_3417)">
<g clip-path="url(#clip6_2311_3417)">
<path d="M0.281189 13.4538V2.80859H4.4697C5.0055 2.80859 5.48463 2.91722 5.90709 3.13447C6.32955 3.35172 6.66236 3.65897 6.90553 4.05623C7.14664 4.45555 7.2672 4.91385 7.2672 5.43111C7.2672 6.02079 7.11573 6.53288 6.8128 6.96738C6.50781 7.40188 6.11832 7.70189 5.64434 7.86741V7.92948C6.19045 8.09501 6.63866 8.41778 6.989 8.8978C7.33933 9.37989 7.51449 9.95198 7.51449 10.6141C7.51449 11.1934 7.37848 11.6972 7.10646 12.1255C6.83238 12.5559 6.4635 12.8849 5.99983 13.1124C5.53615 13.34 5.02611 13.4538 4.4697 13.4538H0.281189ZM1.84222 7.30877H4.03694C4.52122 7.30877 4.90968 7.15566 5.20231 6.84944C5.497 6.54529 5.64434 6.17597 5.64434 5.74147C5.64434 5.2449 5.51039 4.8673 5.24249 4.60866C4.97459 4.35003 4.60365 4.22072 4.12968 4.22072H1.84222V7.30877ZM1.84222 12.0417H4.25332C4.7376 12.0417 5.13224 11.8989 5.43724 11.6134C5.74017 11.33 5.89163 10.9296 5.89163 10.4123C5.89163 9.93646 5.73502 9.533 5.42178 9.20195C5.10648 8.8709 4.68608 8.70538 4.16059 8.70538H1.84222V12.0417ZM9.0137 13.4538V2.80859H15.6133V4.22072H10.5593V7.30877H14.9333V8.70538H10.5593V12.0417H15.7061V13.4538H9.0137ZM19.5236 13.4538V4.22072H16.7107V2.80859H23.8822V4.22072H21.0847V13.4538H19.5236ZM24.1573 13.4538L27.5421 2.80859H29.4741L32.8589 13.4538H31.2051L30.5096 11.1727H26.3984L25.7028 13.4538H24.1573ZM26.8157 9.76059H30.0768L28.7476 5.40007C28.6652 5.1311 28.5776 4.71212 28.4849 4.14313H28.4231C28.3303 4.73281 28.2427 5.15179 28.1603 5.40007L26.8157 9.76059Z" fill="#010C80"/>
<path d="M43.2451 15.3777L41.4986 13.6397H41.3132C39.9634 13.6397 38.9175 13.1763 38.1757 12.2493C37.4338 11.3245 37.0628 9.95167 37.0628 8.13091C37.0628 6.31015 37.4338 4.9363 38.1757 4.00937C38.9175 3.0845 39.9634 2.62207 41.3132 2.62207C42.663 2.62207 43.7088 3.0845 44.4507 4.00937C45.1926 4.9363 45.5635 6.31015 45.5635 8.13091C45.5635 9.49648 45.3523 10.6107 44.9298 11.4735C44.5074 12.3383 43.8994 12.9466 43.106 13.2983L45.2544 15.3777H43.2451ZM41.3132 12.2431C42.1478 12.2431 42.7938 11.9245 43.2513 11.2872C43.7109 10.652 43.9407 9.72925 43.9407 8.51885V7.74296C43.9407 6.53257 43.7109 5.60874 43.2513 4.97147C42.7938 4.33628 42.1478 4.01868 41.3132 4.01868C40.4786 4.01868 39.8315 4.33628 39.3719 4.97147C38.9144 5.60874 38.6857 6.53257 38.6857 7.74296V8.51885C38.6857 9.72925 38.9144 10.652 39.3719 11.2872C39.8315 11.9245 40.4786 12.2431 41.3132 12.2431ZM50.8154 13.6397C49.6943 13.6397 48.8247 13.3315 48.2065 12.7149C47.5882 12.1004 47.2791 11.2086 47.2791 10.0396V2.80829H48.8401V10.0706C48.8401 10.7741 49.0122 11.3121 49.3564 11.6845C49.7026 12.0569 50.1889 12.2431 50.8154 12.2431C51.446 12.2431 51.9354 12.0538 52.2837 11.6752C52.6361 11.2986 52.8123 10.7638 52.8123 10.0706V2.80829H54.3578V10.0396C54.3578 11.2086 54.0487 12.1004 53.4305 12.7149C52.8123 13.3315 51.9406 13.6397 50.8154 13.6397ZM56.3795 13.4535V2.80829H57.925V13.4535H56.3795ZM59.2079 13.4535V12.8173L64.0301 4.22041H59.5324V2.80829H66.2093V3.46003L61.3871 12.0414H66.3175V13.4535H59.2079Z" fill="#0080FF"/>
</g>
</g>
</g>
</g>
<g clip-path="url(#clip7_2311_3417)">
<g clip-path="url(#clip8_2311_3417)">
<path d="M98.7282 -0.0263672C95.1994 -0.0263672 92.1474 2.03069 90.6761 5.00867C89.2055 2.03069 86.1539 -0.0263672 82.6247 -0.0263672C77.6666 -0.0263672 73.6341 4.02234 73.6341 9.00034C73.6341 13.9783 77.6666 18.027 82.6247 18.027C86.1535 18.027 89.2055 15.97 90.6761 12.992C92.1474 15.97 95.199 18.027 98.7282 18.027C103.686 18.027 107.719 13.9783 107.719 9.00034C107.719 4.02234 103.686 -0.0263672 98.7282 -0.0263672ZM86.6382 11.7266L85.3491 13.0224L82.633 10.2783L79.9006 13.0224L78.6107 11.7266L81.3439 9.0011L78.6448 6.27408L79.9354 4.97825L82.633 7.70451L85.3491 4.97825L86.6382 6.27408L83.9066 9.0011L86.6382 11.7266ZM97.911 12.4627L93.9216 8.45851L95.2123 7.16344L97.9106 9.88894L102.245 5.53795L103.534 6.83378L97.911 12.4627Z" fill="#0023FF"/>
</g>
</g>
</g>
</g>
</g>
<defs>
<clipPath id="clip0_2311_3417">
<rect width="108" height="18" fill="white"/>
</clipPath>
<clipPath id="clip1_2311_3417">
<rect width="107.438" height="18.0534" fill="white" transform="translate(0.281189 -0.0263672)"/>
</clipPath>
<clipPath id="clip2_2311_3417">
<rect width="107.438" height="18.0534" fill="white" transform="translate(0.281189 -0.0263672)"/>
</clipPath>
<clipPath id="clip3_2311_3417">
<rect width="66.0364" height="13.0633" fill="white" transform="translate(0.281189 2.46875)"/>
</clipPath>
<clipPath id="clip4_2311_3417">
<rect width="66.0364" height="13.0633" fill="white" transform="translate(0.281189 2.46875)"/>
</clipPath>
<clipPath id="clip5_2311_3417">
<rect width="66.0364" height="13.0633" fill="white" transform="translate(0.281189 2.46875)"/>
</clipPath>
<clipPath id="clip6_2311_3417">
<rect width="66.0364" height="13.0633" fill="white" transform="translate(0.281189 2.46875)"/>
</clipPath>
<clipPath id="clip7_2311_3417">
<rect width="34.0848" height="18.0534" fill="white" transform="translate(73.6341 -0.0263672)"/>
</clipPath>
<clipPath id="clip8_2311_3417">
<rect width="34.0848" height="18.0534" fill="white" transform="translate(73.6341 -0.0263672)"/>
</clipPath>
</defs>
</svg>
