<svg width="100" height="100" viewBox="0 0 100 100" fill="none" xmlns="http://www.w3.org/2000/svg">
<circle cx="50" cy="50" r="50" fill="#E9F6F8"/>
<path d="M70.625 35.625H29.375C27.9943 35.625 26.875 36.7443 26.875 38.125V61.875C26.875 63.2557 27.9943 64.375 29.375 64.375H70.625C72.0057 64.375 73.125 63.2557 73.125 61.875V38.125C73.125 36.7443 72.0057 35.625 70.625 35.625Z" stroke="#2AA9BA" stroke-linecap="round" stroke-linejoin="round"/>
<path d="M64.375 70.625V29.375C64.375 27.9943 63.2557 26.875 61.875 26.875H38.125C36.7443 26.875 35.625 27.9943 35.625 29.375V70.625C35.625 72.0057 36.7443 73.125 38.125 73.125H61.875C63.2557 73.125 64.375 72.0057 64.375 70.625Z" stroke="#2AA9BA" stroke-linecap="round" stroke-linejoin="round"/>
<path d="M57.6625 47.4625L51.4875 55.65M57.6625 55.65L51.4875 47.4625M59.3125 43.75H49.175L44.325 56.25L40.6875 47.4625" stroke="#2AA9BA" stroke-linecap="round" stroke-linejoin="round"/>
</svg>
